<svg width="48" height="48" viewBox="0 0 48 48" fill="none" xmlns="http://www.w3.org/2000/svg">
<path d="M25 21C25.5523 21 26 21.4477 26 22V24H28C28.5523 24 29 24.4477 29 25V28C29 28.5523 28.5523 29 28 29H26V30C26 30.5523 25.5523 31 25 31H23C22.4477 31 22 30.5523 22 30V29H20C19.4477 29 19 28.5523 19 28V25C19 24.4477 19.4477 24 20 24H22V22C22 21.4477 22.4477 21 23 21H25Z" fill="#D6DAE1"/>
<path d="M19.8 10.35V13.5H28.2V10.35C28.2 9.77245 27.7274 9.29995 27.15 9.29995H20.85C20.2725 9.29995 19.8 9.77245 19.8 10.35ZM17.7 13.5V10.35C17.7 8.61089 19.1109 7.19995 20.85 7.19995H27.15C28.889 7.19995 30.2999 8.61089 30.2999 10.35V13.5H36.5999C38.9165 13.5 40.7999 15.3834 40.7999 17.7V34.5C40.7999 36.8165 38.9165 38.7 36.5999 38.7H11.4C9.08339 38.7 7.19995 36.8165 7.19995 34.5V17.7C7.19995 15.3834 9.08339 13.5 11.4 13.5H17.7ZM29.25 15.6H15.6V36.6H32.4V15.6H29.25ZM34.5 15.6V36.6H36.5999C37.7615 36.6 38.6999 35.6615 38.6999 34.5V17.7C38.6999 16.5384 37.7615 15.6 36.5999 15.6H34.5ZM13.5 36.6V15.6H11.4C10.2384 15.6 9.29995 16.5384 9.29995 17.7V34.5C9.29995 35.6615 10.2384 36.6 11.4 36.6H13.5ZM20.85 21.9C20.85 20.7384 21.7884 19.8 22.95 19.8H25.0499C26.2115 19.8 27.15 20.7384 27.15 21.9V22.95H28.2C29.3615 22.95 30.2999 23.8884 30.2999 25.05V27.15C30.2999 28.3115 29.3615 29.25 28.2 29.25H27.15V30.3C27.15 31.4615 26.2115 32.4 25.0499 32.4H22.95C21.7884 32.4 20.85 31.4615 20.85 30.3V29.25H19.8C18.6384 29.25 17.7 28.3115 17.7 27.15V25.05C17.7 23.8884 18.6384 22.95 19.8 22.95H20.85V21.9ZM25.0499 29.25V27.675C25.0499 27.3862 25.2862 27.15 25.575 27.15H28.2V25.05H25.575C25.2862 25.05 25.0499 24.8137 25.0499 24.525V21.9H22.95V24.525C22.95 24.8137 22.7137 25.05 22.425 25.05H19.8V27.15H22.425C22.7137 27.15 22.95 27.3862 22.95 27.675V30.3H25.0499V29.25Z" fill="#485261"/>
</svg>
