<svg width="48" height="48" viewBox="0 0 48 48" fill="none" xmlns="http://www.w3.org/2000/svg">
<circle cx="35.5" cy="33.5" r="9.5" fill="#D6DAE1"/>
<path d="M20.85 9.3002H27.15C27.7274 9.3002 28.2 9.7727 28.2 10.3502V13.5002H19.8V10.3502C19.8 9.7727 20.2725 9.3002 20.85 9.3002ZM17.7 10.3502V13.5002H11.4C9.08339 13.5002 7.19995 15.3836 7.19995 17.7002V34.5002C7.19995 36.8168 9.08339 38.7002 11.4 38.7002H24.0918C23.7834 38.0308 23.534 37.3286 23.3437 36.6002H11.4C10.2384 36.6002 9.29995 35.6618 9.29995 34.5002V26.1002H18.75V29.2502C18.75 30.4118 19.6884 31.3502 20.85 31.3502H23.1271C23.2453 30.6283 23.429 29.9261 23.6718 29.2502H20.8565V26.1002H25.319C25.8703 25.3324 26.5134 24.6236 27.2221 24.0002H9.30651V17.7002C9.30651 16.5386 10.245 15.6002 11.4065 15.6002H36.6065C37.7681 15.6002 38.7065 16.5386 38.7065 17.7002V21.2439C39.4349 21.4343 40.1371 21.6836 40.8065 21.9921V17.7002C40.8065 15.3836 38.9231 13.5002 36.6065 13.5002H30.3065V10.3502C30.3065 8.61113 28.8956 7.2002 27.1565 7.2002H20.85C19.1109 7.2002 17.7 8.61113 17.7 10.3502ZM35.5499 26.1002C39.6121 26.1002 42.8999 29.388 42.8999 33.4502C42.8999 37.5124 39.6121 40.8002 35.5499 40.8002C31.4878 40.8002 28.2 37.5124 28.2 33.4502C28.2 29.388 31.4878 26.1002 35.5499 26.1002ZM35.5499 42.9002C40.7671 42.9002 45 38.6674 45 33.4502C45 28.233 40.7671 24.0002 35.5499 24.0002C30.3328 24.0002 26.1 28.233 26.1 33.4502C26.1 38.6674 30.3328 42.9002 35.5499 42.9002ZM35.5499 28.2002C34.9725 28.2002 34.5 28.6727 34.5 29.2502V33.4502C34.5 34.0277 34.9725 34.5002 35.5499 34.5002H38.6999C39.2775 34.5002 39.75 34.0277 39.75 33.4502C39.75 32.8727 39.2775 32.4002 38.6999 32.4002H36.5999V29.2502C36.5999 28.6727 36.1274 28.2002 35.5499 28.2002Z" fill="#485261"/>
</svg>
