<svg width="49" height="48" viewBox="0 0 49 48" fill="none" xmlns="http://www.w3.org/2000/svg">
<path d="M24.5 27C21.75 27 19 26 17.3999 24.6001L21.4999 29.5001L20.4999 31.5001L22.4999 32.5001V36.0001L20.4999 37.0001L21.4999 38.0001H40.9999C42.3932 32.8001 35.2806 27.0167 31.7 24.85C29.5 26.5 27 27 24.5 27Z" fill="#97BDF7"/>
<path d="M36.0001 31L31.0001 36C29.8334 35.8333 27.2001 35.9 26.0001 37.5C24.8001 39.1 24.8334 40.5 25.0001 41L27.0001 40H29.5001V42L28.0001 44C33.2001 44 33.5001 40.3333 33.0001 38.5L38.5001 33C44.9001 33 44.8334 29.6667 44.0001 28L42.5001 29.5H40.0001V27L41.5001 25C36.7001 25 35.8334 29 36.0001 31Z" fill="#D0E1FB"/>
<path d="M24.5 3C26.1 3 26.8333 3.33333 27 3.5L26.5645 5.24023C30.2243 6.09944 33.0221 9.19068 33.4434 13H34C34.8284 13 35.5 13.6716 35.5 14.5C35.5 15.3284 34.8284 16 34 16H15C14.1716 16 13.5 15.3284 13.5 14.5C13.5 13.6716 14.1716 13 15 13H15.5566C15.9597 9.35524 18.5381 6.36739 21.9658 5.36328L21.5 3.5C21.8333 3.33333 22.9 3 24.5 3Z" fill="#D0E1FB"/>
<path fill-rule="evenodd" clip-rule="evenodd" d="M13.6465 30.6562C15.6841 30.6564 17.3359 32.2601 17.3359 34.2383C17.3359 36.2165 15.6841 37.8202 13.6465 37.8203C11.6087 37.8203 9.95707 36.2166 9.95703 34.2383C9.95703 32.26 11.6087 30.6562 13.6465 30.6562ZM13.6465 32.4473C12.6276 32.4473 11.8018 33.2491 11.8018 34.2383C11.8018 35.2274 12.6276 36.0293 13.6465 36.0293C14.6652 36.0292 15.4912 35.2273 15.4912 34.2383C15.4912 33.2492 14.6653 32.4474 13.6465 32.4473Z" fill="#485261"/>
<path fill-rule="evenodd" clip-rule="evenodd" d="M36.8496 25.6338C38.1359 24.3852 39.8846 23.8391 41.5078 24.0742L41.6094 24.0928C42.1107 24.2033 42.4597 24.5716 42.5762 25C42.6955 25.4395 42.5694 25.9243 42.2158 26.2676L40.9541 27.4932V28.4336H41.9229L43.1855 27.209C43.5392 26.8657 44.0385 26.7436 44.4912 26.8594C44.9616 26.9799 45.3613 27.3571 45.4443 27.8965C45.6865 29.4723 45.124 31.1692 43.8379 32.418C43.1359 33.0995 42.295 33.5697 41.4121 33.8193C41.9499 35.2222 42.2422 36.7174 42.2422 38.2686V39.1641H34.1797C34.3129 40.6539 33.7431 42.2188 32.5391 43.3877C31.2528 44.636 29.5048 45.1824 27.8818 44.9473C27.3263 44.8666 26.9387 44.4781 26.8145 44.0215C26.695 43.5819 26.8192 43.0963 27.1729 42.7529L28.4355 41.5273V40.5869H27.4668L26.2041 41.8125C25.8505 42.1557 25.3511 42.2779 24.8984 42.1621C24.4281 42.0416 24.0285 41.6642 23.9453 41.125C23.846 40.4786 23.8839 39.812 24.0498 39.1641H22.2939C22.3088 39.5305 22.1698 39.896 21.8906 40.167L19.752 42.2432C19.3308 42.6519 18.6879 42.7536 18.1553 42.4951L16.9102 41.8906L16.4717 43.1709C16.2835 43.7195 15.7548 44.0898 15.1592 44.0898H12.1338C11.5385 44.0897 11.0097 43.7201 10.8213 43.1719L10.3809 41.8906L9.1377 42.4951C8.60509 42.7535 7.96205 42.6519 7.54102 42.2432L5.40234 40.167C4.9815 39.7583 4.8775 39.1332 5.14355 38.6162L5.76367 37.4082L4.44629 36.9824C3.88146 36.7995 3.50003 36.2861 3.5 35.708V32.7715C3.5 32.1934 3.88145 31.68 4.44629 31.4971L5.76367 31.0693L5.14355 29.8623C4.87747 29.3453 4.98151 28.7213 5.40234 28.3125L7.54102 26.2363L7.62207 26.1631C8.01367 25.8391 8.56004 25.7525 9.03711 25.9395L9.1377 25.9844L10.3809 26.5869L10.8213 25.3076L10.8604 25.207C11.0757 24.7145 11.5756 24.3888 12.1338 24.3887H15.1592C15.637 24.3887 16.0718 24.6274 16.3223 25.0049C16.6725 24.8637 17.0283 24.7293 17.3906 24.6064C18.0119 25.0937 18.6939 25.5196 19.4248 25.874C19.3631 25.8896 19.3016 25.9077 19.2402 25.9238C19.3947 25.9776 19.5409 26.0565 19.6699 26.1631L19.752 26.2363L21.8906 28.3125C22.3116 28.7212 22.4165 29.3453 22.1504 29.8623L21.5273 31.0693L22.8477 31.4971C23.4125 31.68 23.793 32.1934 23.793 32.7715V35.708C23.7929 36.2863 23.4118 36.7997 22.8467 36.9824L21.6367 37.373H24.8877C25.0816 37.1024 25.3033 36.8438 25.5518 36.6025C26.9166 35.2778 28.8053 34.7439 30.5117 35.0986L35.3008 30.4492C35.1759 29.8829 35.1602 29.296 35.2451 28.7158L35.2227 28.7451C33.6367 27.5622 31.7511 26.6302 29.6641 26.0322C30.4087 25.7006 31.1069 25.2973 31.7461 24.8301C33.2275 25.3877 34.6033 26.1053 35.8379 26.959C36.0989 26.4836 36.4363 26.035 36.8496 25.6338ZM39.9854 25.9004C39.3351 26.047 38.693 26.3775 38.1543 26.9004C37.1661 27.8597 36.8448 29.1527 37.1367 30.2158C37.257 30.6537 37.1625 31.1737 36.7783 31.5469L31.6426 36.5332C31.2582 36.9063 30.7226 36.9976 30.2715 36.8809C29.1764 36.5974 27.8438 36.9096 26.8555 37.8691C26.317 38.3919 25.9771 39.0154 25.8262 39.6465L26.2969 39.1904C26.5559 38.9391 26.9072 38.7973 27.2734 38.7969L28.8965 38.7949L29.0381 38.8018C29.6901 38.8655 30.2086 39.3691 30.2744 40.002L30.2812 40.1406L30.2793 41.7148C30.2789 42.0705 30.133 42.4125 29.874 42.6641L29.4043 43.1201C30.0544 42.9736 30.6968 42.6439 31.2354 42.1211C32.2237 41.1616 32.5449 39.8678 32.2529 38.8047C32.1328 38.3668 32.2271 37.8467 32.6113 37.4736L37.7471 32.4873C38.1315 32.1143 38.6681 32.0229 39.1191 32.1396C40.2141 32.4229 41.5451 32.1114 42.5332 31.1523C43.0719 30.6293 43.4125 30.0054 43.5635 29.374L43.0928 29.8311C42.8337 30.0825 42.4816 30.2242 42.1152 30.2246L40.4932 30.2266C39.7279 30.2273 39.1066 29.6238 39.1074 28.8809L39.1094 27.3066C39.1098 26.951 39.2557 26.609 39.5146 26.3574L39.9854 25.9004ZM11.9707 27.624C11.8373 28.0119 11.5356 28.3022 11.1777 28.4473C10.8155 28.594 10.3898 28.5936 10.0137 28.4111L8.61035 27.7295L6.94141 29.3506L7.64258 30.7129C7.83055 31.0781 7.83083 31.4911 7.67969 31.8428C7.53026 32.1902 7.23153 32.4828 6.83203 32.6123L5.34473 33.0938V35.3848L6.83105 35.8662C7.1808 35.9793 7.45329 36.2173 7.61621 36.5078L7.67969 36.6357L7.72949 36.7705C7.82815 37.0902 7.80692 37.4462 7.64258 37.7656L6.94141 39.1279L8.60938 40.748L10.0127 40.0674L10.1562 40.0068C10.4463 39.9037 10.7567 39.9013 11.0391 39.9834L11.1777 40.0312L11.3096 40.0928C11.6088 40.2508 11.8541 40.5153 11.9707 40.8545L12.4668 42.2988H14.8271L15.3223 40.8555L15.3799 40.7148C15.5316 40.3972 15.8017 40.1583 16.1152 40.0312L16.2539 39.9834C16.5361 39.9014 16.846 39.9039 17.1357 40.0068L17.2783 40.0674L18.6826 40.749L20.3516 39.1279L19.6494 37.7656C19.4616 37.4007 19.4611 36.9876 19.6123 36.6357L19.6758 36.5078C19.8387 36.2172 20.1113 35.9794 20.4609 35.8662L21.9482 35.3848V33.0938L20.46 32.6123C20.0607 32.4828 19.7617 32.1903 19.6123 31.8428C19.4611 31.4909 19.4613 31.077 19.6494 30.7119L20.3506 29.3496L18.6826 27.7295L17.2783 28.4111C16.9025 28.5933 16.4773 28.5938 16.1152 28.4473C15.7571 28.3021 15.4555 28.0113 15.3223 27.623L14.8271 26.1797H12.4668L11.9707 27.624ZM35.3242 37.373H40.3594C40.2602 36.2037 39.9665 35.0766 39.5059 34.0107C39.2951 33.9937 39.0856 33.9648 38.8789 33.9219L35.3242 37.373Z" fill="#485261"/>
<path fill-rule="evenodd" clip-rule="evenodd" d="M25.1348 2.00586C26.0751 2.0322 26.7602 2.14813 27.25 2.32422C27.53 2.42492 27.7877 2.55988 27.9912 2.74414C28.1855 2.92022 28.4051 3.21538 28.4053 3.61133V3.69727L28.3896 3.78125L28.252 4.47363C31.3199 5.711 33.5509 8.5097 33.8926 11.8506H33.9395C35.4677 11.8506 36.707 13.0534 36.707 14.5371C36.707 16.0208 35.4678 17.2236 33.9395 17.2236C33.9394 21.771 29.7051 25.2832 24.7158 25.2832C19.7266 25.2831 15.4922 21.771 15.4922 17.2236C13.9639 17.2235 12.7246 16.0208 12.7246 14.5371C12.7247 13.0535 13.963 11.8507 15.4912 11.8506H15.5391C15.8807 8.51008 18.1113 5.71122 21.1787 4.47363L21.042 3.78125L21.0264 3.69727V3.61133C21.0266 3.21536 21.2461 2.92022 21.4404 2.74414C21.6439 2.55988 21.9016 2.42492 22.1816 2.32422C22.7415 2.12296 23.5562 2 24.7158 2L25.1348 2.00586ZM17.3369 17.2236C17.337 20.5894 20.5352 23.4921 24.7158 23.4922C28.8965 23.4922 32.0957 20.5894 32.0957 17.2236H17.3369ZM15.4912 13.6416C14.9819 13.6417 14.5694 14.0426 14.5693 14.5371C14.5693 15.0316 14.9819 15.4325 15.4912 15.4326H33.9395C34.4489 15.4326 34.8623 15.0317 34.8623 14.5371C34.8623 14.0426 34.4489 13.6416 33.9395 13.6416H15.4912ZM24.7158 3.79102C23.8135 3.79102 23.2663 3.87652 22.958 3.96191L23.7773 8.09961C23.8733 8.58509 23.545 9.05498 23.0449 9.14844C22.5448 9.24158 22.0611 8.92295 21.9648 8.4375L21.5371 6.2793C19.3164 7.31006 17.7101 9.38643 17.3936 11.8506H19.1816V9.61133C19.1819 9.11697 19.5943 8.71585 20.1035 8.71582C20.6128 8.71582 21.0261 9.11695 21.0264 9.61133V11.8506H28.4053V9.61133C28.4055 9.11695 28.8188 8.71582 29.3281 8.71582C29.8372 8.71604 30.2498 9.11709 30.25 9.61133V11.8506H32.0381C31.7214 9.38607 30.1148 7.3099 27.8936 6.2793L27.4668 8.4375C27.3706 8.92297 26.8868 9.24158 26.3867 9.14844C25.8866 9.05506 25.5583 8.58515 25.6543 8.09961L26.4736 3.96191C26.1653 3.87653 25.6181 3.79102 24.7158 3.79102Z" fill="#485261"/>
</svg>
