<svg width="48" height="48" viewBox="0 0 48 48" fill="none" xmlns="http://www.w3.org/2000/svg">
<path d="M4.19971 24.3977V32.0965H6.48872C7.01114 28.9757 9.72634 26.5973 12.9983 26.5973C16.2703 26.5973 18.9855 28.9757 19.5079 32.0965H28.4922C29.0146 28.9757 31.7298 26.5973 35.0018 26.5973C38.2738 26.5973 40.989 28.9757 41.5114 32.0965H43.8004V28.797C43.8004 25.1538 40.8446 22.198 37.2014 22.198H6.39936C5.18268 22.198 4.19971 23.181 4.19971 24.3977Z" fill="#97BDF7"/>
<path d="M13.775 11.1997H17.3976V12.2995V18.8985V19.9983H8.02156L10.7093 13.2756C11.2179 12.0177 12.4277 11.1997 13.775 11.1997ZM19.5972 19.9983V18.8985V12.2995V11.1997H26.2787C27.2823 11.1997 28.2309 11.6533 28.8564 12.437L34.9055 19.9983H19.5972ZM37.7375 20.012L30.5749 11.0622C29.5301 9.75613 27.9491 9 26.2787 9H13.775C11.5273 9 9.50633 10.3679 8.66771 12.4576L5.62943 20.067C3.56726 20.4313 2 22.2323 2 24.3976V32.0964C2 33.3131 2.98297 34.296 4.19966 34.296H6.48867C7.01109 37.4168 9.72629 39.7952 12.9983 39.7952C16.2703 39.7952 18.9855 37.4168 19.5079 34.296H28.4921C29.0145 37.4168 31.7297 39.7952 35.0017 39.7952C38.2737 39.7952 40.9889 37.4168 41.5113 34.296H43.8003C45.017 34.296 46 33.3131 46 32.0964V28.7969C46 24.1226 42.3499 20.2939 37.7444 20.012H37.7375ZM39.2567 34.296C38.7686 36.1933 37.0433 37.5955 34.9948 37.5955C32.9464 37.5955 31.2211 36.1933 30.733 34.296C30.6436 33.9455 30.5955 33.5743 30.5955 33.1962C30.5955 32.8182 30.6436 32.447 30.733 32.0964C31.2211 30.1992 32.9464 28.7969 34.9948 28.7969C37.0433 28.7969 38.7686 30.1992 39.2567 32.0964C39.346 32.447 39.3942 32.8182 39.3942 33.1962C39.3942 33.5743 39.346 33.9455 39.2567 34.296ZM28.4852 32.0964H19.501C18.9786 28.9756 16.2634 26.5972 12.9914 26.5972C9.71942 26.5972 7.00422 28.9756 6.4818 32.0964H4.19966V24.3976C4.19966 23.1809 5.18263 22.1979 6.39931 22.1979H37.1945C40.8377 22.1979 43.7935 25.1537 43.7935 28.7969V32.0964H41.5045C40.982 28.9756 38.2668 26.5972 34.9948 26.5972C31.7229 26.5972 29.0077 28.9756 28.4852 32.0964ZM12.9983 37.5955C10.9499 37.5955 9.2245 36.1933 8.73645 34.296C8.64709 33.9455 8.59897 33.5743 8.59897 33.1962C8.59897 32.8182 8.64709 32.447 8.73645 32.0964C9.2245 30.1992 10.9499 28.7969 12.9983 28.7969C15.0467 28.7969 16.7721 30.1992 17.2601 32.0964C17.3495 32.447 17.3976 32.8182 17.3976 33.1962C17.3976 33.5743 17.3495 33.9455 17.2601 34.296C16.7721 36.1933 15.0467 37.5955 12.9983 37.5955Z" fill="#485261"/>
</svg>
