<svg width="48" height="56" viewBox="0 0 48 56" fill="none" xmlns="http://www.w3.org/2000/svg">
<path fill-rule="evenodd" clip-rule="evenodd" d="M4.87378 36.9414L6.60628 37.3652C6.77815 35.9502 6.72315 34.6309 6.5719 33.4893C6.31065 34.1729 6.0219 34.8086 5.74003 35.376C5.47878 35.8955 5.1969 36.415 4.88065 36.9346L4.87378 36.9414Z" fill="#4F8CE8"/>
<path d="M13.2819 35.0273C13.6944 35.3828 14.4163 35.8135 15.475 36.2236C17.565 37.0371 20.5832 37.625 24 37.625C27.4169 37.625 30.435 37.0371 32.5319 36.2168C33.5907 35.8066 34.3057 35.376 34.725 35.0205C34.8557 34.9111 34.9313 34.8291 34.9794 34.7676L34.0169 25.7168L26.3719 28.4648C25.6088 28.7383 24.8044 28.875 24 28.875C23.1957 28.875 22.3844 28.7383 21.6282 28.4648C19.0844 27.5488 16.5338 26.6328 13.9832 25.7236L13.0275 34.7744L13.0369 34.7851C13.0854 34.8403 13.1595 34.9248 13.2819 35.0273Z" fill="#CEE1FF"/>
<path d="M5.26565 17.9375L10.3532 19.7627C11.0613 19.291 11.8313 18.9014 12.6494 18.5938L23.6082 14.5059C24.1788 14.2939 24.8113 14.5811 25.0244 15.1484C25.2375 15.7158 24.9488 16.3447 24.3782 16.5566L13.4263 20.6445C13.3232 20.6787 13.2269 20.7197 13.1307 20.7607L23.12 24.3496C23.4019 24.4521 23.6975 24.5 24 24.5C24.3025 24.5 24.5982 24.4453 24.88 24.3496L42.7275 17.9375L24.88 11.5254C24.5982 11.4229 24.3025 11.375 24 11.375C23.6975 11.375 23.4019 11.4297 23.12 11.5254L5.27253 17.9375H5.26565Z" fill="#97BDF7"/>
<path d="M23.12 11.5254L5.2725 17.9375L10.36 19.7627C11.0681 19.291 11.8381 18.9014 12.6562 18.5938L23.615 14.5059C24.1856 14.2939 24.8181 14.5811 25.0312 15.1484C25.2444 15.7158 24.9556 16.3447 24.385 16.5566L13.4263 20.6445C13.3231 20.6787 13.2269 20.7197 13.1306 20.7607L23.12 24.3496C23.4019 24.4521 23.6975 24.5 24 24.5C24.3025 24.5 24.5981 24.4453 24.88 24.3496L42.7275 17.9375L24.88 11.5254C24.5981 11.4229 24.3025 11.375 24 11.375C23.6975 11.375 23.4019 11.4297 23.12 11.5254ZM22.3706 26.4072L10.7244 22.2236C8.83375 23.8164 7.64437 26.1338 7.51375 28.6631C7.91937 29.5654 8.215 30.543 8.435 31.5C8.875 33.3867 9.17062 36.0049 8.57937 38.9307C8.5175 39.2246 8.34562 39.4775 8.09125 39.6416C7.83687 39.8057 7.5275 39.8535 7.23875 39.7783L2.83875 38.6846C2.48125 38.5957 2.1925 38.3359 2.06875 37.9873C1.945 37.6387 2.00687 37.2559 2.22688 36.9688C2.81813 36.1689 3.32687 35.2871 3.77375 34.3984C4.5575 32.8262 5.3 30.8164 5.3 28.875C5.3 28.834 5.3 28.793 5.30687 28.752C5.40313 25.9492 6.54437 23.3447 8.4075 21.3896L3.08625 19.4824C2.43313 19.2432 2 18.6279 2 17.9375C2 17.2471 2.43313 16.6318 3.08625 16.3926L22.3706 9.46777C22.8931 9.2832 23.4431 9.1875 24 9.1875C24.5569 9.1875 25.1069 9.2832 25.6294 9.46777L44.9138 16.3926C45.5669 16.625 46 17.2471 46 17.9375C46 18.6279 45.5669 19.2432 44.9138 19.4824L25.6294 26.4072C25.1069 26.5918 24.5569 26.6875 24 26.6875C23.4431 26.6875 22.8931 26.5918 22.3706 26.4072ZM13.9831 25.7236L13.0275 34.7744C13.0756 34.8291 13.1513 34.918 13.2819 35.0273C13.6944 35.3828 14.4163 35.8135 15.475 36.2236C17.565 37.0371 20.5831 37.625 24 37.625C27.4169 37.625 30.435 37.0371 32.5319 36.2168C33.5906 35.8066 34.3056 35.376 34.725 35.0205C34.8556 34.9111 34.9313 34.8291 34.9794 34.7676L34.0169 25.7168L36.1481 24.9512L37.2 34.8906C37.2 37.3037 31.2875 39.8125 24 39.8125C16.7125 39.8125 10.8 37.3037 10.8 34.8906L11.8519 24.9512L13.9831 25.7168V25.7236ZM35.0344 34.6855C35.0344 34.6855 35.0344 34.6855 35.0275 34.6924C35.0275 34.6855 35.0344 34.6855 35.0344 34.6855ZM12.9656 34.6855C12.9656 34.6855 12.9656 34.6855 12.9725 34.6924C12.9725 34.6855 12.9656 34.6855 12.9656 34.6855ZM6.60625 37.3652C6.77813 35.9502 6.72312 34.6309 6.57188 33.4893C6.31063 34.1729 6.02188 34.8086 5.74 35.376C5.47875 35.8955 5.19688 36.415 4.88063 36.9346L6.60625 37.3652Z" fill="#485261"/>
<ellipse cx="24" cy="52" rx="16" ry="4" fill="#E3EDFD"/>
</svg>
